<mxfile host="app.diagrams.net" agent="Mozilla/5.0 (X11; Linux x86_64) AppleWebKit/537.36 (KHTML, like Gecko) Chrome/126.0.0.0 Safari/537.36" version="24.9.1">
  <diagram name="Página-1" id="RMhz_CErKQrMo-fSKsWE">
    <mxGraphModel dx="2382" dy="933" grid="1" gridSize="10" guides="1" tooltips="1" connect="1" arrows="1" fold="1" page="1" pageScale="1" pageWidth="4681" pageHeight="3300" math="0" shadow="0">
      <root>
        <mxCell id="0" />
        <mxCell id="1" parent="0" />
        <mxCell id="rhsj9RZCc8ptd3x7Ms7C-1" value="" style="rounded=0;whiteSpace=wrap;html=1;" parent="1" vertex="1">
          <mxGeometry x="3120" y="4060" width="820" height="520" as="geometry" />
        </mxCell>
        <mxCell id="rhsj9RZCc8ptd3x7Ms7C-2" value="" style="rounded=0;whiteSpace=wrap;html=1;fillColor=#dae8fc;strokeColor=#6c8ebf;" parent="1" vertex="1">
          <mxGeometry x="3200" y="4120" width="640" height="380" as="geometry" />
        </mxCell>
        <mxCell id="rhsj9RZCc8ptd3x7Ms7C-4" value="Login&lt;div&gt;&lt;br&gt;&lt;/div&gt;&lt;div&gt;email&lt;/div&gt;&lt;div&gt;&lt;br&gt;&lt;/div&gt;&lt;div&gt;senha&amp;nbsp;&lt;/div&gt;&lt;div&gt;&lt;br&gt;&lt;/div&gt;&lt;div&gt;botão&lt;/div&gt;" style="text;html=1;align=center;verticalAlign=middle;whiteSpace=wrap;rounded=0;" parent="1" vertex="1">
          <mxGeometry x="3435" y="4250" width="170" height="120" as="geometry" />
        </mxCell>
        <mxCell id="rhsj9RZCc8ptd3x7Ms7C-5" value="" style="rounded=0;whiteSpace=wrap;html=1;" parent="1" vertex="1">
          <mxGeometry x="3120" y="4610" width="820" height="520" as="geometry" />
        </mxCell>
        <mxCell id="rhsj9RZCc8ptd3x7Ms7C-6" value="" style="rounded=0;whiteSpace=wrap;html=1;fillColor=#dae8fc;strokeColor=#6c8ebf;" parent="1" vertex="1">
          <mxGeometry x="3120" y="4610" width="180" height="520" as="geometry" />
        </mxCell>
        <mxCell id="rhsj9RZCc8ptd3x7Ms7C-7" value="Escolas" style="text;html=1;align=center;verticalAlign=middle;whiteSpace=wrap;rounded=0;" parent="1" vertex="1">
          <mxGeometry x="3145" y="4630" width="130" height="30" as="geometry" />
        </mxCell>
        <mxCell id="rhsj9RZCc8ptd3x7Ms7C-8" value="" style="rounded=0;whiteSpace=wrap;html=1;fillColor=#dae8fc;strokeColor=#6c8ebf;" parent="1" vertex="1">
          <mxGeometry x="3320" y="4620" width="610" height="500" as="geometry" />
        </mxCell>
        <mxCell id="rhsj9RZCc8ptd3x7Ms7C-9" value="" style="rounded=0;whiteSpace=wrap;html=1;" parent="1" vertex="1">
          <mxGeometry x="3340" y="4700" width="580" height="410" as="geometry" />
        </mxCell>
        <mxCell id="rhsj9RZCc8ptd3x7Ms7C-10" value="Nome / Diretor principal / etc" style="text;html=1;align=center;verticalAlign=middle;whiteSpace=wrap;rounded=0;" parent="1" vertex="1">
          <mxGeometry x="3345" y="4720" width="540" height="30" as="geometry" />
        </mxCell>
        <mxCell id="rhsj9RZCc8ptd3x7Ms7C-11" value="" style="rounded=0;whiteSpace=wrap;html=1;" parent="1" vertex="1">
          <mxGeometry x="3120" y="5160" width="820" height="520" as="geometry" />
        </mxCell>
        <mxCell id="rhsj9RZCc8ptd3x7Ms7C-12" value="" style="rounded=0;whiteSpace=wrap;html=1;fillColor=#dae8fc;strokeColor=#6c8ebf;" parent="1" vertex="1">
          <mxGeometry x="3120" y="5160" width="180" height="520" as="geometry" />
        </mxCell>
        <mxCell id="rhsj9RZCc8ptd3x7Ms7C-13" value="" style="rounded=0;whiteSpace=wrap;html=1;fillColor=#dae8fc;strokeColor=#6c8ebf;" parent="1" vertex="1">
          <mxGeometry x="3310" y="5170" width="610" height="500" as="geometry" />
        </mxCell>
        <mxCell id="rhsj9RZCc8ptd3x7Ms7C-14" value="Dados da escola" style="text;html=1;align=center;verticalAlign=middle;whiteSpace=wrap;rounded=0;" parent="1" vertex="1">
          <mxGeometry x="3417.5" y="5400" width="395" height="30" as="geometry" />
        </mxCell>
        <mxCell id="rhsj9RZCc8ptd3x7Ms7C-15" value="Menu de ações" style="text;html=1;align=center;verticalAlign=middle;whiteSpace=wrap;rounded=0;" parent="1" vertex="1">
          <mxGeometry x="3810" y="5180" width="110" height="30" as="geometry" />
        </mxCell>
        <mxCell id="rhsj9RZCc8ptd3x7Ms7C-16" value="Edição&lt;div&gt;&lt;div&gt;Desabilitar&lt;/div&gt;&lt;/div&gt;" style="text;html=1;align=center;verticalAlign=middle;whiteSpace=wrap;rounded=0;" parent="1" vertex="1">
          <mxGeometry x="3810" y="5220" width="110" height="30" as="geometry" />
        </mxCell>
        <mxCell id="rhsj9RZCc8ptd3x7Ms7C-17" value="Escolas" style="text;html=1;align=center;verticalAlign=middle;whiteSpace=wrap;rounded=0;" parent="1" vertex="1">
          <mxGeometry x="3145" y="5180" width="130" height="30" as="geometry" />
        </mxCell>
        <mxCell id="rhsj9RZCc8ptd3x7Ms7C-18" value="Adicionar escola" style="rounded=0;whiteSpace=wrap;html=1;" parent="1" vertex="1">
          <mxGeometry x="3830" y="4660" width="90" height="30" as="geometry" />
        </mxCell>
        <mxCell id="rhsj9RZCc8ptd3x7Ms7C-20" value="Sair" style="rounded=0;whiteSpace=wrap;html=1;" parent="1" vertex="1">
          <mxGeometry x="3165" y="5080" width="90" height="30" as="geometry" />
        </mxCell>
        <mxCell id="rhsj9RZCc8ptd3x7Ms7C-21" value="Sair" style="rounded=0;whiteSpace=wrap;html=1;" parent="1" vertex="1">
          <mxGeometry x="3165" y="5630" width="90" height="30" as="geometry" />
        </mxCell>
        <mxCell id="rhsj9RZCc8ptd3x7Ms7C-23" value="" style="rounded=0;whiteSpace=wrap;html=1;" parent="1" vertex="1">
          <mxGeometry x="4930" y="3550" width="820" height="520" as="geometry" />
        </mxCell>
        <mxCell id="rhsj9RZCc8ptd3x7Ms7C-24" value="" style="rounded=0;whiteSpace=wrap;html=1;fillColor=#dae8fc;strokeColor=#6c8ebf;" parent="1" vertex="1">
          <mxGeometry x="5010" y="3610" width="640" height="380" as="geometry" />
        </mxCell>
        <mxCell id="rhsj9RZCc8ptd3x7Ms7C-25" value="Login&lt;div&gt;&lt;br&gt;&lt;/div&gt;&lt;div&gt;email&lt;/div&gt;&lt;div&gt;&lt;br&gt;&lt;/div&gt;&lt;div&gt;senha&amp;nbsp;&lt;/div&gt;&lt;div&gt;&lt;br&gt;&lt;/div&gt;&lt;div&gt;botão&lt;/div&gt;" style="text;html=1;align=center;verticalAlign=middle;whiteSpace=wrap;rounded=0;" parent="1" vertex="1">
          <mxGeometry x="5245" y="3740" width="170" height="120" as="geometry" />
        </mxCell>
        <mxCell id="rhsj9RZCc8ptd3x7Ms7C-26" value="&lt;font style=&quot;font-size: 39px;&quot;&gt;FLUXOS DO ADMINISTRADOR&lt;/font&gt;" style="text;html=1;align=center;verticalAlign=middle;whiteSpace=wrap;rounded=0;" parent="1" vertex="1">
          <mxGeometry x="3175" y="3960" width="710" height="30" as="geometry" />
        </mxCell>
        <mxCell id="rhsj9RZCc8ptd3x7Ms7C-27" value="&lt;font style=&quot;font-size: 39px;&quot;&gt;FLUXOS DO DIRETOR&lt;/font&gt;" style="text;html=1;align=center;verticalAlign=middle;whiteSpace=wrap;rounded=0;" parent="1" vertex="1">
          <mxGeometry x="4971" y="3440" width="710" height="30" as="geometry" />
        </mxCell>
        <mxCell id="rhsj9RZCc8ptd3x7Ms7C-28" value="" style="rounded=0;whiteSpace=wrap;html=1;" parent="1" vertex="1">
          <mxGeometry x="4930" y="4090" width="820" height="520" as="geometry" />
        </mxCell>
        <mxCell id="rhsj9RZCc8ptd3x7Ms7C-29" value="" style="rounded=0;whiteSpace=wrap;html=1;fillColor=#dae8fc;strokeColor=#6c8ebf;" parent="1" vertex="1">
          <mxGeometry x="4930" y="4090" width="180" height="520" as="geometry" />
        </mxCell>
        <mxCell id="rhsj9RZCc8ptd3x7Ms7C-30" value="Alunos" style="text;html=1;align=center;verticalAlign=middle;whiteSpace=wrap;rounded=0;" parent="1" vertex="1">
          <mxGeometry x="4955" y="4110" width="130" height="30" as="geometry" />
        </mxCell>
        <mxCell id="rhsj9RZCc8ptd3x7Ms7C-31" value="" style="rounded=0;whiteSpace=wrap;html=1;fillColor=#dae8fc;strokeColor=#6c8ebf;" parent="1" vertex="1">
          <mxGeometry x="5130" y="4100" width="610" height="500" as="geometry" />
        </mxCell>
        <mxCell id="rhsj9RZCc8ptd3x7Ms7C-32" value="" style="rounded=0;whiteSpace=wrap;html=1;" parent="1" vertex="1">
          <mxGeometry x="5150" y="4180" width="580" height="410" as="geometry" />
        </mxCell>
        <mxCell id="rhsj9RZCc8ptd3x7Ms7C-33" value="LISTAGEM DE ALUNOS" style="text;html=1;align=center;verticalAlign=middle;whiteSpace=wrap;rounded=0;" parent="1" vertex="1">
          <mxGeometry x="5165" y="4350" width="540" height="30" as="geometry" />
        </mxCell>
        <mxCell id="rhsj9RZCc8ptd3x7Ms7C-34" value="Adicionar aluno" style="rounded=0;whiteSpace=wrap;html=1;" parent="1" vertex="1">
          <mxGeometry x="5640" y="4140" width="90" height="30" as="geometry" />
        </mxCell>
        <mxCell id="rhsj9RZCc8ptd3x7Ms7C-35" value="Sair" style="rounded=0;whiteSpace=wrap;html=1;" parent="1" vertex="1">
          <mxGeometry x="4975" y="4560" width="90" height="30" as="geometry" />
        </mxCell>
        <mxCell id="rhsj9RZCc8ptd3x7Ms7C-36" value="" style="rounded=0;whiteSpace=wrap;html=1;" parent="1" vertex="1">
          <mxGeometry x="4926" y="4640" width="820" height="520" as="geometry" />
        </mxCell>
        <mxCell id="rhsj9RZCc8ptd3x7Ms7C-37" value="" style="rounded=0;whiteSpace=wrap;html=1;fillColor=#dae8fc;strokeColor=#6c8ebf;" parent="1" vertex="1">
          <mxGeometry x="4926" y="4640" width="180" height="520" as="geometry" />
        </mxCell>
        <mxCell id="rhsj9RZCc8ptd3x7Ms7C-38" value="" style="rounded=0;whiteSpace=wrap;html=1;fillColor=#dae8fc;strokeColor=#6c8ebf;" parent="1" vertex="1">
          <mxGeometry x="5116" y="4650" width="610" height="500" as="geometry" />
        </mxCell>
        <mxCell id="rhsj9RZCc8ptd3x7Ms7C-39" value="Historico de pagamentos" style="text;html=1;align=center;verticalAlign=middle;whiteSpace=wrap;rounded=0;" parent="1" vertex="1">
          <mxGeometry x="5130" y="4970" width="170" height="30" as="geometry" />
        </mxCell>
        <mxCell id="rhsj9RZCc8ptd3x7Ms7C-42" value="Alunos" style="text;html=1;align=center;verticalAlign=middle;whiteSpace=wrap;rounded=0;" parent="1" vertex="1">
          <mxGeometry x="4951" y="4660" width="130" height="30" as="geometry" />
        </mxCell>
        <mxCell id="rhsj9RZCc8ptd3x7Ms7C-43" value="Sair" style="rounded=0;whiteSpace=wrap;html=1;" parent="1" vertex="1">
          <mxGeometry x="4971" y="5110" width="90" height="30" as="geometry" />
        </mxCell>
        <mxCell id="rhsj9RZCc8ptd3x7Ms7C-44" value="" style="rounded=0;whiteSpace=wrap;html=1;" parent="1" vertex="1">
          <mxGeometry x="5130" y="5000" width="580" height="140" as="geometry" />
        </mxCell>
        <mxCell id="rhsj9RZCc8ptd3x7Ms7C-46" value="Dropdown de pagamento" style="rounded=0;whiteSpace=wrap;html=1;" parent="1" vertex="1">
          <mxGeometry x="5340" y="5020" width="150" height="20" as="geometry" />
        </mxCell>
        <mxCell id="rhsj9RZCc8ptd3x7Ms7C-47" value="Adicionar Fatura" style="rounded=0;whiteSpace=wrap;html=1;" parent="1" vertex="1">
          <mxGeometry x="5590" y="4970" width="121" height="20" as="geometry" />
        </mxCell>
        <mxCell id="rhsj9RZCc8ptd3x7Ms7C-48" value="Edição da fatura" style="rounded=0;whiteSpace=wrap;html=1;" parent="1" vertex="1">
          <mxGeometry x="5490" y="5020" width="110" height="20" as="geometry" />
        </mxCell>
        <mxCell id="rhsj9RZCc8ptd3x7Ms7C-49" value="Excluir" style="rounded=0;whiteSpace=wrap;html=1;" parent="1" vertex="1">
          <mxGeometry x="5600" y="5020" width="105" height="20" as="geometry" />
        </mxCell>
        <mxCell id="rhsj9RZCc8ptd3x7Ms7C-50" value="Mes / ano / valor" style="rounded=0;whiteSpace=wrap;html=1;" parent="1" vertex="1">
          <mxGeometry x="5150" y="5020" width="190" height="20" as="geometry" />
        </mxCell>
        <mxCell id="rhsj9RZCc8ptd3x7Ms7C-51" value="Dados do aluno" style="rounded=0;whiteSpace=wrap;html=1;" parent="1" vertex="1">
          <mxGeometry x="5131" y="4700" width="579" height="130" as="geometry" />
        </mxCell>
        <mxCell id="rhsj9RZCc8ptd3x7Ms7C-52" value="Ações" style="rounded=0;whiteSpace=wrap;html=1;" parent="1" vertex="1">
          <mxGeometry x="5610" y="4660" width="100" height="30" as="geometry" />
        </mxCell>
        <mxCell id="rhsj9RZCc8ptd3x7Ms7C-53" value="Foto do aluno" style="rounded=0;whiteSpace=wrap;html=1;fillColor=#dae8fc;strokeColor=#6c8ebf;" parent="1" vertex="1">
          <mxGeometry x="5140" y="4709" width="90" height="101" as="geometry" />
        </mxCell>
        <mxCell id="rhsj9RZCc8ptd3x7Ms7C-54" value="Editar/Excluir/Enviar link para cadastro" style="rounded=0;whiteSpace=wrap;html=1;" parent="1" vertex="1">
          <mxGeometry x="5770" y="4660" width="250" height="50" as="geometry" />
        </mxCell>
        <mxCell id="rhsj9RZCc8ptd3x7Ms7C-55" value="Dados para o preenchimento do pai" style="rounded=0;whiteSpace=wrap;html=1;" parent="1" vertex="1">
          <mxGeometry x="6660" y="4090" width="820" height="520" as="geometry" />
        </mxCell>
        <mxCell id="rhsj9RZCc8ptd3x7Ms7C-79" value="" style="rounded=0;whiteSpace=wrap;html=1;" parent="1" vertex="1">
          <mxGeometry x="5810" y="4090" width="820" height="520" as="geometry" />
        </mxCell>
        <mxCell id="rhsj9RZCc8ptd3x7Ms7C-80" value="Turma:&amp;nbsp;:( ) Berçário ( ) Creche ( ) Escola ( )Reforço&lt;div&gt;&lt;br&gt;&lt;/div&gt;&lt;div&gt;Turno: OPçÕes de turno&lt;/div&gt;&lt;div&gt;&lt;br&gt;&lt;/div&gt;&lt;div&gt;Categoria: categorias Intengral&lt;/div&gt;&lt;div&gt;&lt;br&gt;&lt;/div&gt;&lt;div&gt;Nome da criança&lt;/div&gt;" style="rounded=0;whiteSpace=wrap;html=1;" parent="1" vertex="1">
          <mxGeometry x="5940" y="4140" width="560" height="400" as="geometry" />
        </mxCell>
        <mxCell id="rhsj9RZCc8ptd3x7Ms7C-84" value="Calendário com mês/ano e valor" style="rounded=0;whiteSpace=wrap;html=1;" parent="1" vertex="1">
          <mxGeometry x="5770" y="4970" width="330" height="190" as="geometry" />
        </mxCell>
        <mxCell id="rhsj9RZCc8ptd3x7Ms7C-85" value="" style="rounded=0;whiteSpace=wrap;html=1;" parent="1" vertex="1">
          <mxGeometry x="4920" y="5310" width="820" height="520" as="geometry" />
        </mxCell>
        <mxCell id="rhsj9RZCc8ptd3x7Ms7C-86" value="" style="rounded=0;whiteSpace=wrap;html=1;fillColor=#dae8fc;strokeColor=#6c8ebf;" parent="1" vertex="1">
          <mxGeometry x="4920" y="5310" width="180" height="520" as="geometry" />
        </mxCell>
        <mxCell id="rhsj9RZCc8ptd3x7Ms7C-87" value="Alunos" style="text;html=1;align=center;verticalAlign=middle;whiteSpace=wrap;rounded=0;" parent="1" vertex="1">
          <mxGeometry x="4945" y="5330" width="130" height="30" as="geometry" />
        </mxCell>
        <mxCell id="rhsj9RZCc8ptd3x7Ms7C-88" value="" style="rounded=0;whiteSpace=wrap;html=1;fillColor=#dae8fc;strokeColor=#6c8ebf;" parent="1" vertex="1">
          <mxGeometry x="5120" y="5320" width="610" height="500" as="geometry" />
        </mxCell>
        <mxCell id="rhsj9RZCc8ptd3x7Ms7C-89" value="" style="rounded=0;whiteSpace=wrap;html=1;" parent="1" vertex="1">
          <mxGeometry x="5140" y="5400" width="580" height="410" as="geometry" />
        </mxCell>
        <mxCell id="rhsj9RZCc8ptd3x7Ms7C-90" value="LISTAGEM DE PROFESSORES" style="text;html=1;align=center;verticalAlign=middle;whiteSpace=wrap;rounded=0;" parent="1" vertex="1">
          <mxGeometry x="5155" y="5570" width="540" height="30" as="geometry" />
        </mxCell>
        <mxCell id="rhsj9RZCc8ptd3x7Ms7C-91" value="Adicionar professores" style="rounded=0;whiteSpace=wrap;html=1;" parent="1" vertex="1">
          <mxGeometry x="5550" y="5360" width="170" height="30" as="geometry" />
        </mxCell>
        <mxCell id="rhsj9RZCc8ptd3x7Ms7C-92" value="Sair" style="rounded=0;whiteSpace=wrap;html=1;" parent="1" vertex="1">
          <mxGeometry x="4965" y="5780" width="90" height="30" as="geometry" />
        </mxCell>
        <mxCell id="rhsj9RZCc8ptd3x7Ms7C-93" value="Professores" style="text;html=1;align=center;verticalAlign=middle;whiteSpace=wrap;rounded=0;" parent="1" vertex="1">
          <mxGeometry x="4945" y="5384" width="130" height="30" as="geometry" />
        </mxCell>
        <mxCell id="rhsj9RZCc8ptd3x7Ms7C-94" value="&lt;font style=&quot;font-size: 39px;&quot;&gt;ALUNO&lt;/font&gt;" style="text;html=1;align=center;verticalAlign=middle;whiteSpace=wrap;rounded=0;" parent="1" vertex="1">
          <mxGeometry x="4971" y="3510" width="710" height="30" as="geometry" />
        </mxCell>
        <mxCell id="rhsj9RZCc8ptd3x7Ms7C-95" value="&lt;font style=&quot;font-size: 39px;&quot;&gt;CADASTRO DE ALUNO&lt;/font&gt;" style="text;html=1;align=center;verticalAlign=middle;whiteSpace=wrap;rounded=0;" parent="1" vertex="1">
          <mxGeometry x="5820" y="4010" width="1640" height="30" as="geometry" />
        </mxCell>
        <mxCell id="rhsj9RZCc8ptd3x7Ms7C-96" value="&lt;font style=&quot;font-size: 39px;&quot;&gt;PROFESSORES (CRUD BASICO)&lt;/font&gt;" style="text;html=1;align=center;verticalAlign=middle;whiteSpace=wrap;rounded=0;" parent="1" vertex="1">
          <mxGeometry x="4981" y="5250" width="710" height="30" as="geometry" />
        </mxCell>
        <mxCell id="rhsj9RZCc8ptd3x7Ms7C-112" value="" style="rounded=0;whiteSpace=wrap;html=1;" parent="1" vertex="1">
          <mxGeometry x="4920" y="5850" width="820" height="520" as="geometry" />
        </mxCell>
        <mxCell id="rhsj9RZCc8ptd3x7Ms7C-113" value="" style="rounded=0;whiteSpace=wrap;html=1;fillColor=#dae8fc;strokeColor=#6c8ebf;" parent="1" vertex="1">
          <mxGeometry x="4920" y="5850" width="180" height="520" as="geometry" />
        </mxCell>
        <mxCell id="rhsj9RZCc8ptd3x7Ms7C-114" value="" style="rounded=0;whiteSpace=wrap;html=1;fillColor=#dae8fc;strokeColor=#6c8ebf;" parent="1" vertex="1">
          <mxGeometry x="5110" y="5860" width="610" height="500" as="geometry" />
        </mxCell>
        <mxCell id="rhsj9RZCc8ptd3x7Ms7C-116" value="Alunos" style="text;html=1;align=center;verticalAlign=middle;whiteSpace=wrap;rounded=0;" parent="1" vertex="1">
          <mxGeometry x="4945" y="5870" width="130" height="30" as="geometry" />
        </mxCell>
        <mxCell id="rhsj9RZCc8ptd3x7Ms7C-117" value="Sair" style="rounded=0;whiteSpace=wrap;html=1;" parent="1" vertex="1">
          <mxGeometry x="4965" y="6320" width="90" height="30" as="geometry" />
        </mxCell>
        <mxCell id="rhsj9RZCc8ptd3x7Ms7C-124" value="Dados do professor" style="rounded=0;whiteSpace=wrap;html=1;" parent="1" vertex="1">
          <mxGeometry x="5125" y="5910" width="579" height="430" as="geometry" />
        </mxCell>
        <mxCell id="rhsj9RZCc8ptd3x7Ms7C-125" value="Ações" style="rounded=0;whiteSpace=wrap;html=1;" parent="1" vertex="1">
          <mxGeometry x="5604" y="5870" width="100" height="30" as="geometry" />
        </mxCell>
        <mxCell id="rhsj9RZCc8ptd3x7Ms7C-126" value="Foto do professor" style="rounded=0;whiteSpace=wrap;html=1;fillColor=#dae8fc;strokeColor=#6c8ebf;" parent="1" vertex="1">
          <mxGeometry x="5134" y="5919" width="90" height="101" as="geometry" />
        </mxCell>
        <mxCell id="rhsj9RZCc8ptd3x7Ms7C-127" value="Professores" style="text;html=1;align=center;verticalAlign=middle;whiteSpace=wrap;rounded=0;" parent="1" vertex="1">
          <mxGeometry x="4945" y="5910" width="130" height="30" as="geometry" />
        </mxCell>
        <mxCell id="rhsj9RZCc8ptd3x7Ms7C-128" value="Editar/Desabilitar" style="rounded=0;whiteSpace=wrap;html=1;" parent="1" vertex="1">
          <mxGeometry x="5760" y="5860" width="250" height="50" as="geometry" />
        </mxCell>
        <mxCell id="rhsj9RZCc8ptd3x7Ms7C-129" value="" style="rounded=0;whiteSpace=wrap;html=1;" parent="1" vertex="1">
          <mxGeometry x="6570" y="5330" width="820" height="520" as="geometry" />
        </mxCell>
        <mxCell id="rhsj9RZCc8ptd3x7Ms7C-130" value="" style="rounded=0;whiteSpace=wrap;html=1;fillColor=#dae8fc;strokeColor=#6c8ebf;" parent="1" vertex="1">
          <mxGeometry x="6570" y="5330" width="180" height="520" as="geometry" />
        </mxCell>
        <mxCell id="rhsj9RZCc8ptd3x7Ms7C-131" value="Alunos" style="text;html=1;align=center;verticalAlign=middle;whiteSpace=wrap;rounded=0;" parent="1" vertex="1">
          <mxGeometry x="6595" y="5350" width="130" height="30" as="geometry" />
        </mxCell>
        <mxCell id="rhsj9RZCc8ptd3x7Ms7C-132" value="" style="rounded=0;whiteSpace=wrap;html=1;fillColor=#dae8fc;strokeColor=#6c8ebf;" parent="1" vertex="1">
          <mxGeometry x="6770" y="5340" width="610" height="500" as="geometry" />
        </mxCell>
        <mxCell id="rhsj9RZCc8ptd3x7Ms7C-133" value="" style="rounded=0;whiteSpace=wrap;html=1;" parent="1" vertex="1">
          <mxGeometry x="6790" y="5420" width="580" height="410" as="geometry" />
        </mxCell>
        <mxCell id="rhsj9RZCc8ptd3x7Ms7C-134" value="LISTAGEM DE TURMA" style="text;html=1;align=center;verticalAlign=middle;whiteSpace=wrap;rounded=0;" parent="1" vertex="1">
          <mxGeometry x="6805" y="5590" width="540" height="30" as="geometry" />
        </mxCell>
        <mxCell id="rhsj9RZCc8ptd3x7Ms7C-135" value="Adicionar TURMA" style="rounded=0;whiteSpace=wrap;html=1;" parent="1" vertex="1">
          <mxGeometry x="7200" y="5380" width="170" height="30" as="geometry" />
        </mxCell>
        <mxCell id="rhsj9RZCc8ptd3x7Ms7C-136" value="Sair" style="rounded=0;whiteSpace=wrap;html=1;" parent="1" vertex="1">
          <mxGeometry x="6615" y="5800" width="90" height="30" as="geometry" />
        </mxCell>
        <mxCell id="rhsj9RZCc8ptd3x7Ms7C-137" value="Professores" style="text;html=1;align=center;verticalAlign=middle;whiteSpace=wrap;rounded=0;" parent="1" vertex="1">
          <mxGeometry x="6595" y="5404" width="130" height="30" as="geometry" />
        </mxCell>
        <mxCell id="rhsj9RZCc8ptd3x7Ms7C-138" value="&lt;span style=&quot;font-size: 39px;&quot;&gt;TURMAS CRUD&lt;/span&gt;" style="text;html=1;align=center;verticalAlign=middle;whiteSpace=wrap;rounded=0;" parent="1" vertex="1">
          <mxGeometry x="6631" y="5270" width="710" height="30" as="geometry" />
        </mxCell>
        <mxCell id="rhsj9RZCc8ptd3x7Ms7C-139" value="" style="rounded=0;whiteSpace=wrap;html=1;" parent="1" vertex="1">
          <mxGeometry x="6570" y="5870" width="820" height="520" as="geometry" />
        </mxCell>
        <mxCell id="rhsj9RZCc8ptd3x7Ms7C-140" value="" style="rounded=0;whiteSpace=wrap;html=1;fillColor=#dae8fc;strokeColor=#6c8ebf;" parent="1" vertex="1">
          <mxGeometry x="6570" y="5870" width="180" height="520" as="geometry" />
        </mxCell>
        <mxCell id="rhsj9RZCc8ptd3x7Ms7C-141" value="" style="rounded=0;whiteSpace=wrap;html=1;fillColor=#dae8fc;strokeColor=#6c8ebf;" parent="1" vertex="1">
          <mxGeometry x="6760" y="5880" width="610" height="500" as="geometry" />
        </mxCell>
        <mxCell id="rhsj9RZCc8ptd3x7Ms7C-142" value="Alunos" style="text;html=1;align=center;verticalAlign=middle;whiteSpace=wrap;rounded=0;" parent="1" vertex="1">
          <mxGeometry x="6595" y="5890" width="130" height="30" as="geometry" />
        </mxCell>
        <mxCell id="rhsj9RZCc8ptd3x7Ms7C-143" value="Sair" style="rounded=0;whiteSpace=wrap;html=1;" parent="1" vertex="1">
          <mxGeometry x="6615" y="6340" width="90" height="30" as="geometry" />
        </mxCell>
        <mxCell id="rhsj9RZCc8ptd3x7Ms7C-145" value="Ações" style="rounded=0;whiteSpace=wrap;html=1;" parent="1" vertex="1">
          <mxGeometry x="7220" y="5890" width="145" height="30" as="geometry" />
        </mxCell>
        <mxCell id="rhsj9RZCc8ptd3x7Ms7C-147" value="Professores" style="text;html=1;align=center;verticalAlign=middle;whiteSpace=wrap;rounded=0;" parent="1" vertex="1">
          <mxGeometry x="6595" y="5930" width="130" height="30" as="geometry" />
        </mxCell>
        <mxCell id="rhsj9RZCc8ptd3x7Ms7C-148" value="Editar/Desabilitar" style="rounded=0;whiteSpace=wrap;html=1;" parent="1" vertex="1">
          <mxGeometry x="7410" y="5880" width="250" height="50" as="geometry" />
        </mxCell>
        <mxCell id="rhsj9RZCc8ptd3x7Ms7C-149" value="Turmas" style="text;html=1;align=center;verticalAlign=middle;whiteSpace=wrap;rounded=0;" parent="1" vertex="1">
          <mxGeometry x="6595" y="5450" width="130" height="30" as="geometry" />
        </mxCell>
        <mxCell id="rhsj9RZCc8ptd3x7Ms7C-151" value="LISTAGEM DE ALUNOS" style="rounded=0;whiteSpace=wrap;html=1;" parent="1" vertex="1">
          <mxGeometry x="6775.5" y="6240" width="579" height="140" as="geometry" />
        </mxCell>
        <mxCell id="rhsj9RZCc8ptd3x7Ms7C-152" value="DADOS DA TURMA" style="rounded=0;whiteSpace=wrap;html=1;" parent="1" vertex="1">
          <mxGeometry x="6775.5" y="5890" width="414.5" height="150" as="geometry" />
        </mxCell>
        <mxCell id="rhsj9RZCc8ptd3x7Ms7C-153" value="Adicionar aluno" style="rounded=0;whiteSpace=wrap;html=1;" parent="1" vertex="1">
          <mxGeometry x="7212.5" y="6200" width="145" height="30" as="geometry" />
        </mxCell>
        <mxCell id="rhsj9RZCc8ptd3x7Ms7C-154" value="Turmas" style="text;html=1;align=center;verticalAlign=middle;whiteSpace=wrap;rounded=0;" parent="1" vertex="1">
          <mxGeometry x="6595" y="5970" width="130" height="30" as="geometry" />
        </mxCell>
        <mxCell id="rhsj9RZCc8ptd3x7Ms7C-155" value="" style="rounded=0;whiteSpace=wrap;html=1;" parent="1" vertex="1">
          <mxGeometry x="6270" y="1770" width="820" height="520" as="geometry" />
        </mxCell>
        <mxCell id="rhsj9RZCc8ptd3x7Ms7C-156" value="" style="rounded=0;whiteSpace=wrap;html=1;fillColor=#dae8fc;strokeColor=#6c8ebf;" parent="1" vertex="1">
          <mxGeometry x="6350" y="1830" width="640" height="380" as="geometry" />
        </mxCell>
        <mxCell id="rhsj9RZCc8ptd3x7Ms7C-157" value="Login&lt;div&gt;&lt;br&gt;&lt;/div&gt;&lt;div&gt;email&lt;/div&gt;&lt;div&gt;&lt;br&gt;&lt;/div&gt;&lt;div&gt;senha&amp;nbsp;&lt;/div&gt;&lt;div&gt;&lt;br&gt;&lt;/div&gt;&lt;div&gt;botão&lt;/div&gt;" style="text;html=1;align=center;verticalAlign=middle;whiteSpace=wrap;rounded=0;" parent="1" vertex="1">
          <mxGeometry x="6585" y="1960" width="170" height="120" as="geometry" />
        </mxCell>
        <mxCell id="rhsj9RZCc8ptd3x7Ms7C-158" value="&lt;font style=&quot;font-size: 39px;&quot;&gt;FLUXOS DO PROFESSOR&lt;/font&gt;" style="text;html=1;align=center;verticalAlign=middle;whiteSpace=wrap;rounded=0;" parent="1" vertex="1">
          <mxGeometry x="6325" y="1710" width="710" height="30" as="geometry" />
        </mxCell>
        <mxCell id="rhsj9RZCc8ptd3x7Ms7C-160" value="" style="rounded=0;whiteSpace=wrap;html=1;" parent="1" vertex="1">
          <mxGeometry x="6260" y="2320" width="820" height="520" as="geometry" />
        </mxCell>
        <mxCell id="rhsj9RZCc8ptd3x7Ms7C-161" value="" style="rounded=0;whiteSpace=wrap;html=1;fillColor=#dae8fc;strokeColor=#6c8ebf;" parent="1" vertex="1">
          <mxGeometry x="6260" y="2320" width="180" height="520" as="geometry" />
        </mxCell>
        <mxCell id="rhsj9RZCc8ptd3x7Ms7C-162" value="Turmas" style="text;html=1;align=center;verticalAlign=middle;whiteSpace=wrap;rounded=0;" parent="1" vertex="1">
          <mxGeometry x="6285" y="2340" width="130" height="30" as="geometry" />
        </mxCell>
        <mxCell id="rhsj9RZCc8ptd3x7Ms7C-163" value="" style="rounded=0;whiteSpace=wrap;html=1;fillColor=#dae8fc;strokeColor=#6c8ebf;" parent="1" vertex="1">
          <mxGeometry x="6460" y="2330" width="610" height="500" as="geometry" />
        </mxCell>
        <mxCell id="rhsj9RZCc8ptd3x7Ms7C-167" value="Sair" style="rounded=0;whiteSpace=wrap;html=1;" parent="1" vertex="1">
          <mxGeometry x="6305" y="2790" width="90" height="30" as="geometry" />
        </mxCell>
        <mxCell id="rhsj9RZCc8ptd3x7Ms7C-168" value="" style="rounded=0;whiteSpace=wrap;html=1;" parent="1" vertex="1">
          <mxGeometry x="6475" y="2390" width="580" height="410" as="geometry" />
        </mxCell>
        <mxCell id="rhsj9RZCc8ptd3x7Ms7C-169" value="LISTAGEM DE TURMAS" style="text;html=1;align=center;verticalAlign=middle;whiteSpace=wrap;rounded=0;" parent="1" vertex="1">
          <mxGeometry x="6490" y="2560" width="540" height="30" as="geometry" />
        </mxCell>
        <mxCell id="rhsj9RZCc8ptd3x7Ms7C-180" value="" style="rounded=0;whiteSpace=wrap;html=1;" parent="1" vertex="1">
          <mxGeometry x="7100" y="2315" width="820" height="520" as="geometry" />
        </mxCell>
        <mxCell id="rhsj9RZCc8ptd3x7Ms7C-181" value="" style="rounded=0;whiteSpace=wrap;html=1;fillColor=#dae8fc;strokeColor=#6c8ebf;" parent="1" vertex="1">
          <mxGeometry x="7100" y="2315" width="180" height="520" as="geometry" />
        </mxCell>
        <mxCell id="rhsj9RZCc8ptd3x7Ms7C-182" value="Turmas" style="text;html=1;align=center;verticalAlign=middle;whiteSpace=wrap;rounded=0;" parent="1" vertex="1">
          <mxGeometry x="7125" y="2335" width="130" height="30" as="geometry" />
        </mxCell>
        <mxCell id="rhsj9RZCc8ptd3x7Ms7C-183" value="" style="rounded=0;whiteSpace=wrap;html=1;fillColor=#dae8fc;strokeColor=#6c8ebf;" parent="1" vertex="1">
          <mxGeometry x="7300" y="2325" width="610" height="500" as="geometry" />
        </mxCell>
        <mxCell id="rhsj9RZCc8ptd3x7Ms7C-184" value="Sair" style="rounded=0;whiteSpace=wrap;html=1;" parent="1" vertex="1">
          <mxGeometry x="7145" y="2785" width="90" height="30" as="geometry" />
        </mxCell>
        <mxCell id="rhsj9RZCc8ptd3x7Ms7C-185" value="LISTAGEM DE ALUNOS" style="rounded=0;whiteSpace=wrap;html=1;" parent="1" vertex="1">
          <mxGeometry x="7315" y="2385" width="580" height="185" as="geometry" />
        </mxCell>
        <mxCell id="rhsj9RZCc8ptd3x7Ms7C-235" value="" style="rounded=0;whiteSpace=wrap;html=1;" parent="1" vertex="1">
          <mxGeometry x="7100" y="2870" width="820" height="520" as="geometry" />
        </mxCell>
        <mxCell id="rhsj9RZCc8ptd3x7Ms7C-236" value="" style="rounded=0;whiteSpace=wrap;html=1;fillColor=#dae8fc;strokeColor=#6c8ebf;" parent="1" vertex="1">
          <mxGeometry x="7100" y="2870" width="180" height="520" as="geometry" />
        </mxCell>
        <mxCell id="rhsj9RZCc8ptd3x7Ms7C-237" value="" style="rounded=0;whiteSpace=wrap;html=1;fillColor=#dae8fc;strokeColor=#6c8ebf;" parent="1" vertex="1">
          <mxGeometry x="7290" y="2880" width="610" height="500" as="geometry" />
        </mxCell>
        <mxCell id="rhsj9RZCc8ptd3x7Ms7C-240" value="Sair" style="rounded=0;whiteSpace=wrap;html=1;" parent="1" vertex="1">
          <mxGeometry x="7145" y="3340" width="90" height="30" as="geometry" />
        </mxCell>
        <mxCell id="rhsj9RZCc8ptd3x7Ms7C-247" value="Dados do aluno" style="rounded=0;whiteSpace=wrap;html=1;" parent="1" vertex="1">
          <mxGeometry x="7305" y="2930" width="579" height="150" as="geometry" />
        </mxCell>
        <mxCell id="rhsj9RZCc8ptd3x7Ms7C-249" value="Foto do aluno" style="rounded=0;whiteSpace=wrap;html=1;fillColor=#dae8fc;strokeColor=#6c8ebf;" parent="1" vertex="1">
          <mxGeometry x="7314" y="2939" width="90" height="101" as="geometry" />
        </mxCell>
        <mxCell id="rhsj9RZCc8ptd3x7Ms7C-251" value="icone de setinha" style="rounded=0;whiteSpace=wrap;html=1;" parent="1" vertex="1">
          <mxGeometry x="7305" y="2890" width="90" height="30" as="geometry" />
        </mxCell>
        <mxCell id="rhsj9RZCc8ptd3x7Ms7C-252" value="Turmas" style="text;html=1;align=center;verticalAlign=middle;whiteSpace=wrap;rounded=0;" parent="1" vertex="1">
          <mxGeometry x="7122" y="2890" width="130" height="30" as="geometry" />
        </mxCell>
        <mxCell id="6Bg8yHn85d6GpKQIrH_6-1" value="" style="rounded=0;whiteSpace=wrap;html=1;" parent="1" vertex="1">
          <mxGeometry x="7990" y="2320" width="820" height="520" as="geometry" />
        </mxCell>
        <mxCell id="6Bg8yHn85d6GpKQIrH_6-6" value="Listagem de alunos" style="rounded=0;whiteSpace=wrap;html=1;" parent="1" vertex="1">
          <mxGeometry x="8040" y="2470" width="580" height="350" as="geometry" />
        </mxCell>
        <mxCell id="6Bg8yHn85d6GpKQIrH_6-7" value="Input do dia (calendário) (FIXO)" style="rounded=0;whiteSpace=wrap;html=1;" parent="1" vertex="1">
          <mxGeometry x="8050" y="2370" width="200" height="50" as="geometry" />
        </mxCell>
        <mxCell id="6Bg8yHn85d6GpKQIrH_6-8" value="checkbox para cada aluno" style="rounded=0;whiteSpace=wrap;html=1;" parent="1" vertex="1">
          <mxGeometry x="8620" y="2470" width="120" height="350" as="geometry" />
        </mxCell>
        <mxCell id="6Bg8yHn85d6GpKQIrH_6-9" value="Salvar" style="rounded=0;whiteSpace=wrap;html=1;" parent="1" vertex="1">
          <mxGeometry x="8540" y="2360" width="200" height="55" as="geometry" />
        </mxCell>
        <mxCell id="6Bg8yHn85d6GpKQIrH_6-10" value="Chamada" style="rounded=0;whiteSpace=wrap;html=1;" parent="1" vertex="1">
          <mxGeometry x="7790" y="2340" width="105" height="30" as="geometry" />
        </mxCell>
        <mxCell id="6Bg8yHn85d6GpKQIrH_6-11" value="Listagem de chamadas" style="rounded=0;whiteSpace=wrap;html=1;" parent="1" vertex="1">
          <mxGeometry x="7315" y="2600" width="580" height="210" as="geometry" />
        </mxCell>
        <mxCell id="6Bg8yHn85d6GpKQIrH_6-12" value="" style="rounded=0;whiteSpace=wrap;html=1;" parent="1" vertex="1">
          <mxGeometry x="8260" y="2385" width="20" height="20" as="geometry" />
        </mxCell>
        <mxCell id="6Bg8yHn85d6GpKQIrH_6-13" value="Desejo alterar o dia da chamada" style="text;html=1;align=center;verticalAlign=middle;whiteSpace=wrap;rounded=0;" parent="1" vertex="1">
          <mxGeometry x="8280" y="2380" width="190" height="30" as="geometry" />
        </mxCell>
      </root>
    </mxGraphModel>
  </diagram>
</mxfile>
